<svg width="651" height="649" viewBox="0 0 651 649" fill="none" xmlns="http://www.w3.org/2000/svg">
<mask id="mask0_341_618" style="mask-type:alpha" maskUnits="userSpaceOnUse" x="0" y="0" width="651" height="649">
<mask id="path-1-outside-1_341_618" maskUnits="userSpaceOnUse" x="0" y="-0.5" width="651" height="650" fill="black">
<rect fill="white" y="-0.5" width="651" height="650"/>
<path d="M325.93 162.061L346.358 0.5L346.198 163.337L386.734 5.60362L366.307 167.165L426.313 15.6514L385.777 173.545L464.296 30.6432L404.13 182.157L500.045 50.2603L421.366 193.162L532.921 74.343L437.165 206.08L562.765 102.253L451.05 220.913L588.778 133.673L463.019 237.499L610.642 168.122L472.914 255.362L628.038 204.964L480.415 274.341L640.646 243.719L485.522 294.118L648.306 283.751L488.075 314.213L650.859 324.42L488.075 334.628L648.306 365.09L485.522 354.883L640.646 405.121L480.415 374.659L628.038 444.036L472.914 393.638L610.642 480.878L463.019 411.501L588.778 515.328L451.05 427.928L562.765 546.747L437.165 442.76L532.921 574.657L421.366 455.838L500.045 598.58L404.13 466.684L464.296 618.197L385.777 475.455L426.313 633.189L366.307 481.676L386.734 643.396L346.198 485.503L346.358 648.5L325.93 486.779L305.502 648.5L305.502 485.503L264.965 643.396L285.553 481.676L225.546 633.189L266.083 475.455L187.563 618.197L247.73 466.684L151.815 598.58L230.494 455.838L118.779 574.657L214.694 442.76L89.0949 546.747L200.809 427.928L63.0814 515.328L188.84 411.501L41.2172 480.878L178.945 393.638L23.8217 444.036L171.444 374.659L11.2139 405.121L166.338 354.883L3.55348 365.09L163.784 334.628L1 324.42L163.784 314.213L3.55348 283.751L166.338 294.118L11.2139 243.719L171.444 274.341L23.8217 204.964L178.945 255.362L41.2172 168.122L188.84 237.499L63.0814 133.673L200.809 220.913L89.0949 102.253L214.694 206.08L118.779 74.343L230.494 193.162L151.815 50.2603L247.73 182.157L187.563 30.6432L266.083 173.545L225.546 15.6514L285.553 167.165L264.965 5.60362L305.502 163.337V0.5L325.93 162.061Z"/>
</mask>
<path d="M325.93 162.061L346.358 0.5L346.198 163.337L386.734 5.60362L366.307 167.165L426.313 15.6514L385.777 173.545L464.296 30.6432L404.13 182.157L500.045 50.2603L421.366 193.162L532.921 74.343L437.165 206.08L562.765 102.253L451.05 220.913L588.778 133.673L463.019 237.499L610.642 168.122L472.914 255.362L628.038 204.964L480.415 274.341L640.646 243.719L485.522 294.118L648.306 283.751L488.075 314.213L650.859 324.42L488.075 334.628L648.306 365.09L485.522 354.883L640.646 405.121L480.415 374.659L628.038 444.036L472.914 393.638L610.642 480.878L463.019 411.501L588.778 515.328L451.05 427.928L562.765 546.747L437.165 442.76L532.921 574.657L421.366 455.838L500.045 598.58L404.13 466.684L464.296 618.197L385.777 475.455L426.313 633.189L366.307 481.676L386.734 643.396L346.198 485.503L346.358 648.5L325.93 486.779L305.502 648.5L305.502 485.503L264.965 643.396L285.553 481.676L225.546 633.189L266.083 475.455L187.563 618.197L247.73 466.684L151.815 598.58L230.494 455.838L118.779 574.657L214.694 442.76L89.0949 546.747L200.809 427.928L63.0814 515.328L188.84 411.501L41.2172 480.878L178.945 393.638L23.8217 444.036L171.444 374.659L11.2139 405.121L166.338 354.883L3.55348 365.09L163.784 334.628L1 324.42L163.784 314.213L3.55348 283.751L166.338 294.118L11.2139 243.719L171.444 274.341L23.8217 204.964L178.945 255.362L41.2172 168.122L188.84 237.499L63.0814 133.673L200.809 220.913L89.0949 102.253L214.694 206.08L118.779 74.343L230.494 193.162L151.815 50.2603L247.73 182.157L187.563 30.6432L266.083 173.545L225.546 15.6514L285.553 167.165L264.965 5.60362L305.502 163.337V0.5L325.93 162.061Z" stroke="black" stroke-width="2" stroke-miterlimit="10" mask="url(#path-1-outside-1_341_618)"/>
</mask>
<g mask="url(#mask0_341_618)">
<rect x="-826.432" y="-37.6172" width="1152.83" height="702.852" rx="45" fill="black"/>
</g>
<path d="M160.715 486.596L206.422 511.5L160.715 536.604L135.711 582.21L110.707 536.604L65.0003 511.5L110.707 486.596L135.711 440.789L160.715 486.596Z" fill="#B9FF66"/>
<path d="M282.102 260.065L363.777 304.566L282.102 349.425L237.422 430.922L192.742 349.425L111.067 304.566L192.742 260.065L237.422 178.211L282.102 260.065Z" fill="#191A23"/>
</svg>
